<?xml version="1.0" encoding="utf-8"?>
<svg width="300px" height="255px" viewBox="0 0 77 222" fill="none" xmlns="http://www.w3.org/2000/svg">
  <path d="M 39.09 2.925 C 39.111 2.925 39.133 2.925 39.154 2.925 C 50.926 2.423 48.354 14.469 48.354 14.469 C 48.354 14.469 47.497 16.176 47.497 18.987 C 48.783 17.983 48.783 20.492 48.354 23.002 C 48.016 24.982 47.372 25.172 47.08 25.017 C 47.201 25.161 47.016 27.58 45.353 29.527 C 43.638 33.141 45.782 34.379 47.068 34.547 C 47.41 34.622 47.824 34.705 48.291 34.799 C 50.939 35.33 55.286 36.202 57.91 37.909 C 69.024 41.151 68.987 45.25 68.921 52.59 C 68.916 53.176 68.91 53.782 68.91 54.409 C 68.237 57.101 68.69 59.289 69.278 62.13 C 70.001 65.623 70.928 70.102 70.219 77.713 C 70.439 78.685 70.662 79.796 70.883 80.895 C 71.347 83.201 71.799 85.453 72.187 86.246 C 72.472 87.25 73.044 92.47 73.044 105.32 C 73.044 107.459 73.909 108.585 74.41 109.238 C 74.615 109.505 74.759 109.692 74.759 109.838 C 75.473 112.515 75.706 118.07 73.648 118.873 C 71.076 119.877 66.789 120.378 65.074 117.367 C 63.359 114.355 62.93 111.846 65.503 109.838 C 67.561 108.232 67.218 104.818 66.789 103.313 C 64.931 98.962 61.301 88.957 61.644 83.737 C 61.299 80.299 60.745 78.328 60.206 76.412 C 59.408 73.572 58.91 68.103 58.91 60.909 C 57.195 64.925 55.777 69.89 56.634 74.909 C 57.206 79.26 57.753 88.886 57.41 94.909 C 57.112 100.149 58.266 106.431 58.853 109.628 C 58.941 110.106 59.016 110.515 59.072 110.842 C 59.644 116.698 60.272 131.722 58.215 144.973 C 57.357 148.487 56.928 150.495 56.928 152.001 C 57.071 153.506 57.186 157.02 56.5 159.028 C 55.814 161.035 55.928 164.884 56.071 166.557 C 56.643 169.066 57.271 175.893 55.214 183.121 C 53.156 190.349 53.213 197.175 53.499 199.685 C 54.499 202.027 57.014 207.515 59.072 210.727 C 59.81 211.88 59.418 212.444 58.809 213.321 C 58.623 213.59 58.416 213.888 58.215 214.241 C 57.357 215.747 53.927 220.666 52.213 218.256 C 50.498 216.416 47.068 211.53 47.068 206.712 C 46.99 206.376 46.916 206.063 46.848 205.769 L 46.846 205.761 C 46.272 203.314 46.023 202.251 46.043 201.196 C 46.058 200.386 46.231 199.581 46.536 198.158 C 46.569 198.005 46.603 197.845 46.639 197.677 C 47.325 194.465 45.496 186.634 44.496 183.121 C 43.495 180.276 41.923 173.283 43.638 168.063 C 45.353 162.842 44.353 155.849 43.638 153.004 C 42.066 148.32 39.41 123.031 39.41 117.41 L 39.09 117.383 L 38.77 117.41 C 38.77 123.031 36.114 148.32 34.542 153.004 C 33.827 155.849 32.827 162.842 34.542 168.063 C 36.257 173.283 34.685 180.276 33.685 183.121 C 32.684 186.634 30.855 194.465 31.541 197.677 C 31.577 197.844 31.611 198.003 31.643 198.155 L 31.644 198.157 C 31.95 199.581 32.123 200.386 32.138 201.196 C 32.157 202.251 31.908 203.314 31.335 205.761 C 31.265 206.057 31.191 206.373 31.112 206.712 C 31.112 211.53 27.683 216.416 25.968 218.256 C 24.253 220.666 20.823 215.747 19.966 214.241 C 19.765 213.888 19.558 213.59 19.371 213.321 C 18.762 212.444 18.37 211.88 19.108 210.727 C 21.166 207.515 23.681 202.027 24.682 199.685 C 24.967 197.175 25.025 190.349 22.967 183.121 C 20.909 175.893 21.538 169.066 22.109 166.557 C 22.252 164.884 22.367 161.035 21.681 159.028 C 20.995 157.02 21.109 153.506 21.252 152.001 C 21.252 150.495 20.823 148.487 19.966 144.973 C 17.908 131.722 18.537 116.698 19.108 110.842 C 19.164 110.515 19.239 110.106 19.327 109.628 C 19.915 106.431 21.069 100.149 20.77 94.909 C 20.427 88.886 20.975 79.26 21.546 74.909 C 22.404 69.89 20.985 64.925 19.27 60.909 C 19.27 68.103 18.773 73.572 17.974 76.412 C 17.436 78.328 16.881 80.299 16.536 83.737 C 16.879 88.957 13.249 98.962 11.391 103.313 C 10.963 104.818 10.62 108.232 12.678 109.838 C 15.25 111.846 14.821 114.355 13.106 117.367 C 11.391 120.378 7.104 119.877 4.532 118.873 C 2.474 118.07 2.707 112.515 3.421 109.838 C 3.421 109.692 3.566 109.505 3.77 109.238 C 4.272 108.585 5.136 107.459 5.136 105.32 C 5.136 92.47 5.708 87.25 5.994 86.246 C 6.381 85.453 6.834 83.201 7.297 80.895 C 7.518 79.796 7.742 78.685 7.962 77.713 C 7.252 70.102 8.179 65.623 8.902 62.13 C 9.49 59.289 9.943 57.101 9.27 54.409 C 9.27 53.782 9.265 53.176 9.259 52.59 C 9.193 45.25 9.156 41.151 20.27 37.909 C 22.895 36.202 27.241 35.33 29.889 34.799 C 30.356 34.705 30.77 34.622 31.112 34.547 C 32.398 34.379 34.542 33.141 32.827 29.527 C 31.164 27.58 30.979 25.161 31.1 25.017 C 30.808 25.172 30.164 24.982 29.826 23.002 C 29.397 20.492 29.397 17.983 30.684 18.987 C 30.684 16.176 29.826 14.469 29.826 14.469 C 29.826 14.469 27.254 2.423 39.027 2.925 C 39.048 2.925 39.069 2.925 39.09 2.925 Z" fill="#51B1C0" stroke="#51B1C0"/>
</svg>