<?xml version="1.0" encoding="utf-8"?>
<svg width="691" height="255" viewBox="0 0 93 225" fill="none" xmlns="http://www.w3.org/2000/svg">
  <path d="M 23.838 40.871 C 27.438 38.871 33.671 37.371 36.338 36.871 C 37.837 36.704 40.337 35.471 38.337 31.871 C 36.398 29.931 36.183 27.521 36.323 27.377 C 35.983 27.532 35.232 27.343 34.837 25.371 C 34.392 23.144 34.343 20.917 35.398 21.164 C 35.26 20.508 35.077 19.217 34.837 16.871 C 33.866 7.371 38.724 5.371 46.136 5.371 C 59.866 4.871 56.866 16.871 56.866 16.871 C 56.866 16.871 55.866 18.571 55.866 21.371 C 57.366 20.371 57.366 22.871 56.866 25.371 C 56.472 27.343 55.721 27.532 55.38 27.377 C 55.521 27.521 55.306 29.931 53.366 31.871 C 51.366 35.471 53.866 36.704 55.366 36.871 C 58.033 37.371 64.266 38.871 67.866 40.871 C 74.366 43.371 78.366 49.371 79.366 54.371 C 80.366 59.371 82.366 72.371 82.366 79.871 C 82.366 82.871 83.199 87.204 83.866 88.371 C 84.199 89.371 84.866 94.571 84.866 107.371 C 84.866 109.501 85.875 110.623 86.459 111.273 C 86.698 111.539 86.866 111.726 86.866 111.871 C 87.699 114.537 88.766 120.071 86.366 120.871 C 83.366 121.871 78.366 122.371 76.366 119.371 C 74.366 116.371 73.866 113.871 76.866 111.871 C 79.266 110.271 78.866 106.871 78.366 105.371 C 76.199 101.037 71.966 91.071 72.366 85.871 C 71.963 82.446 71.317 80.483 70.689 78.574 C 69.757 75.745 68.866 73.036 68.866 65.871 C 66.866 69.871 65.866 72.371 66.866 77.371 C 67.533 81.704 68.766 91.871 68.366 97.871 C 67.966 103.871 68.866 110.371 69.366 112.871 C 70.033 118.704 70.766 133.671 68.366 146.871 C 67.366 150.371 66.866 152.371 66.866 153.871 C 67.033 155.371 67.166 158.871 66.366 160.871 C 65.566 162.871 65.699 166.704 65.866 168.371 C 66.533 170.871 67.266 177.671 64.866 184.871 C 62.466 192.071 62.533 198.871 62.866 201.371 C 64.033 203.704 66.966 209.171 69.366 212.371 C 70.227 213.519 69.77 214.081 69.06 214.955 C 68.842 215.222 68.601 215.519 68.366 215.871 C 67.366 217.371 63.366 222.271 61.366 219.871 C 59.366 218.037 55.366 213.171 55.366 208.371 C 54.513 205.242 54.145 204.055 54.17 202.876 C 54.19 201.983 54.435 201.095 54.866 199.371 C 55.666 196.171 53.533 188.371 52.366 184.871 C 51.199 182.037 49.366 175.071 51.366 169.871 C 53.366 164.671 52.199 157.704 51.366 154.871 C 49.533 150.204 45.866 139.471 45.866 133.871 L 45.837 133.871 C 45.837 139.471 42.171 150.204 40.337 154.871 C 39.504 157.704 38.337 164.671 40.337 169.871 C 42.337 175.071 40.504 182.037 39.337 184.871 C 38.171 188.371 36.038 196.171 36.838 199.371 C 37.269 201.095 37.514 201.983 37.533 202.876 C 37.559 204.055 37.191 205.242 36.338 208.371 C 36.338 213.171 32.338 218.037 30.338 219.871 C 28.338 222.271 24.338 217.371 23.338 215.871 C 23.103 215.519 22.862 215.222 22.644 214.955 C 21.934 214.081 21.476 213.519 22.338 212.371 C 24.738 209.171 27.671 203.704 28.838 201.371 C 29.171 198.871 29.238 192.071 26.838 184.871 C 24.438 177.671 25.171 170.871 25.838 168.371 C 26.004 166.704 26.138 162.871 25.338 160.871 C 24.538 158.871 24.671 155.371 24.838 153.871 C 24.838 152.371 24.338 150.371 23.338 146.871 C 20.938 133.671 21.671 118.704 22.338 112.871 C 22.838 110.371 23.738 103.871 23.338 97.871 C 22.938 91.871 24.171 81.704 24.838 77.371 C 25.838 72.371 24.838 69.871 22.838 65.871 C 22.838 73.036 21.946 75.745 21.015 78.574 C 20.387 80.483 19.74 82.446 19.338 85.871 C 19.738 91.071 15.504 101.037 13.338 105.371 C 12.838 106.871 12.438 110.271 14.838 111.871 C 17.838 113.871 17.338 116.371 15.338 119.371 C 13.338 122.371 8.338 121.871 5.338 120.871 C 2.938 120.071 4.004 114.537 4.838 111.871 C 4.838 111.726 5.006 111.539 5.244 111.273 C 5.829 110.623 6.838 109.501 6.838 107.371 C 6.838 94.571 7.504 89.371 7.838 88.371 C 8.504 87.204 9.338 82.871 9.338 79.871 C 9.338 72.371 11.338 59.371 12.338 54.371 C 13.338 49.371 17.338 43.371 23.838 40.871 Z" fill="#51B1C0" stroke="#51B1C0"/>
</svg>