<?xml version="1.0" encoding="utf-8"?>
<svg width="691" height="255" viewBox="0 0 114 221" fill="none" xmlns="http://www.w3.org/2000/svg">
  <path d="M 57.272 131.672 L 57.299 131.672 C 57.299 137.294 61.815 148.069 64.072 152.754 C 65.099 155.598 65.532 161.659 64.072 167.812 C 62.232 173.659 64.096 179.814 65.532 182.659 C 66.969 186.172 69.368 194.214 68.383 197.426 L 68.34 197.566 C 68.304 197.683 68.269 197.797 68.235 197.906 C 67.796 199.33 67.548 200.135 67.526 200.945 C 67.498 202 67.855 203.063 68.679 205.51 C 68.779 205.806 68.885 206.122 68.999 206.461 C 68.999 211.279 73.925 216.165 76.388 218.005 C 78.851 220.415 83.777 215.496 85.009 213.99 C 85.298 213.637 85.595 213.339 85.863 213.07 C 86.738 212.194 87.301 211.629 86.24 210.476 C 84.145 208.199 83.077 206.148 82.12 204.313 C 81.727 203.559 81.353 202.841 80.935 202.159 C 80.524 199.649 80.442 192.823 83.398 185.595 C 86.354 178.367 88.636 170.659 89.187 166.659 C 89.592 163.708 89.1 160.213 88.593 156.614 C 88.413 155.334 88.231 154.04 88.086 152.754 C 87.609 148.492 87.862 147.8 88.744 145.389 C 88.877 145.024 89.025 144.62 89.187 144.159 C 93.114 128.687 90.98 120.322 89.52 114.601 C 89.14 113.111 88.806 111.801 88.636 110.591 C 88.021 108.081 87.594 102.182 88.086 96.159 C 88.579 90.136 87.807 82.009 86.986 77.659 C 86.424 75.371 86.146 74.442 86.01 73.492 C 85.847 72.359 85.886 71.196 85.886 67.659 C 87.536 74.954 89.871 77.334 89.871 77.334 C 89.871 77.334 91.441 81.222 91.937 84.659 C 91.444 89.879 96.953 99.716 99.621 104.066 C 100.237 105.571 100.73 108.985 97.774 110.591 C 94.079 112.598 94.695 115.108 97.158 118.12 C 99.621 121.131 105.779 120.629 109.474 119.626 C 112.43 118.823 111.116 113.268 110.09 110.591 C 110.09 110.445 109.883 110.258 109.589 109.991 C 108.869 109.338 107.627 108.212 107.627 106.073 C 107.736 105.544 107.844 105.031 107.948 104.534 C 109.597 96.666 110.444 92.624 107.339 84.159 C 106.518 82.988 105.139 77.965 105.139 74.954 C 107.986 66.163 103.47 57.954 100.188 52.159 C 98.957 47.14 92.399 40.822 84.393 38.312 C 79.959 36.304 72.283 34.799 68.999 34.297 C 67.151 34.129 63.012 32.891 65.475 29.277 C 67.864 27.33 68.129 24.911 67.956 24.767 C 68.375 24.922 69.3 24.732 69.786 22.752 C 70.401 20.242 70.401 17.733 68.554 18.737 C 69.786 16.659 69.786 14.219 69.786 14.219 C 69.786 14.219 71.286 2.159 57.631 2.674 C 57.516 2.674 57.4 2.675 57.286 2.675 C 57.171 2.675 57.056 2.674 56.94 2.674 C 43.286 2.159 44.786 14.219 44.786 14.219 C 44.786 14.219 44.786 16.659 46.017 18.737 C 44.17 17.733 44.17 20.242 44.786 22.752 C 45.271 24.732 46.196 24.922 46.616 24.767 C 46.442 24.911 46.707 27.33 49.096 29.277 C 51.559 32.891 47.42 34.129 45.573 34.297 C 42.289 34.799 34.612 36.304 30.178 38.312 C 22.173 40.822 15.615 47.14 14.384 52.159 C 11.101 57.954 6.586 66.163 9.433 74.954 C 9.433 77.965 8.053 82.988 7.232 84.159 C 4.128 92.624 4.975 96.666 6.624 104.534 C 6.728 105.031 6.835 105.544 6.945 106.073 C 6.945 108.212 5.703 109.338 4.983 109.991 C 4.689 110.258 4.482 110.445 4.482 110.591 C 3.456 113.268 2.142 118.823 5.098 119.626 C 8.792 120.629 14.95 121.131 17.413 118.12 C 19.876 115.108 20.492 112.598 16.798 110.591 C 13.842 108.985 14.334 105.571 14.95 104.066 C 17.619 99.716 23.127 89.879 22.635 84.659 C 23.131 81.222 24.701 77.334 24.701 77.334 C 24.701 77.334 27.035 74.954 28.686 67.659 C 28.686 71.196 28.725 72.359 28.562 73.492 C 28.425 74.442 28.147 75.371 27.586 77.659 C 26.764 82.009 25.993 90.136 26.485 96.159 C 26.978 102.182 26.551 108.081 25.935 110.591 C 25.766 111.801 25.431 113.111 25.051 114.601 C 23.592 120.322 21.457 128.687 25.385 144.159 C 25.547 144.62 25.695 145.024 25.828 145.389 C 26.71 147.8 26.963 148.492 26.485 152.754 C 26.341 154.04 26.159 155.334 25.979 156.614 C 25.472 160.213 24.979 163.708 25.385 166.659 C 25.935 170.659 28.218 178.367 31.173 185.595 C 34.129 192.823 34.047 199.649 33.636 202.159 C 33.218 202.841 32.844 203.559 32.451 204.313 C 31.495 206.148 30.426 208.199 28.331 210.476 C 27.27 211.629 27.834 212.194 28.708 213.07 C 28.976 213.339 29.274 213.637 29.562 213.99 C 30.794 215.496 35.72 220.415 38.183 218.005 C 40.646 216.165 45.573 211.279 45.573 206.461 C 45.686 206.122 45.793 205.806 45.892 205.51 C 46.716 203.063 47.073 202 47.045 200.945 C 47.024 200.135 46.775 199.33 46.336 197.906 C 46.289 197.754 46.24 197.594 46.188 197.426 C 45.203 194.214 47.602 186.172 49.039 182.659 C 50.476 179.814 52.339 173.659 50.499 167.812 C 49.039 161.659 49.473 155.598 50.499 152.754 C 52.757 148.069 57.272 137.294 57.272 131.672 Z" fill="#51B1C0" stroke="#51B1C0"/>
</svg>