<?xml version="1.0" encoding="utf-8"?>
<svg width="691" height="255" viewBox="0 0 103 223" fill="none" xmlns="http://www.w3.org/2000/svg">
  <path d="M 51.409 3.781 C 51.5 3.78 51.591 3.78 51.683 3.78 C 67.053 3.278 63.695 15.325 63.695 15.325 C 63.695 15.325 62.575 17.031 62.575 19.842 C 64.254 18.838 64.254 21.348 63.695 23.857 C 63.253 25.837 62.412 26.028 62.031 25.872 C 62.189 26.016 61.948 28.435 59.777 30.383 C 57.538 33.997 60.336 35.235 62.015 35.402 C 65.001 35.904 71.978 37.41 76.008 39.418 C 83.285 41.927 89.245 48.245 90.365 53.265 C 93.348 59.059 97.452 67.269 94.865 76.059 C 94.865 79.071 96.119 84.093 96.865 85.265 C 99.687 93.73 98.917 97.772 97.418 105.64 C 97.323 106.137 97.226 106.649 97.126 107.179 C 97.126 109.318 98.255 110.444 98.91 111.097 C 99.177 111.363 99.365 111.551 99.365 111.697 C 100.298 114.374 101.492 119.928 98.805 120.732 C 95.447 121.735 89.85 122.237 87.611 119.226 C 85.372 116.214 84.812 113.704 88.171 111.697 C 90.857 110.09 90.409 106.677 89.85 105.171 C 87.424 100.821 82.417 90.985 82.865 85.765 C 82.414 82.327 80.987 78.44 80.987 78.44 C 80.987 78.44 78.865 76.059 77.365 68.765 C 77.365 72.309 77.329 73.469 77.479 74.605 C 77.603 75.552 77.856 76.482 78.365 78.765 C 79.111 83.115 79.813 91.241 79.365 97.265 C 78.917 103.288 79.305 109.187 79.865 111.697 C 80.019 112.906 80.323 114.217 80.668 115.707 C 81.995 121.428 83.935 129.793 80.365 145.265 C 80.218 145.726 80.084 146.13 79.962 146.494 C 79.161 148.906 78.931 149.598 79.365 153.859 C 79.496 155.146 79.662 156.439 79.826 157.719 C 80.286 161.319 80.734 164.814 80.365 167.765 C 79.865 171.765 77.79 179.473 75.104 186.701 C 72.417 193.929 72.492 200.755 72.865 203.265 C 73.245 203.947 73.585 204.664 73.942 205.419 C 74.812 207.254 75.783 209.305 77.687 211.582 C 78.651 212.735 78.14 213.299 77.344 214.176 C 77.101 214.445 76.83 214.743 76.568 215.096 C 75.449 216.602 70.971 221.521 68.732 219.111 C 66.493 217.271 62.015 212.385 62.015 207.567 C 61.913 207.23 61.817 206.915 61.726 206.62 L 61.725 206.616 C 60.976 204.169 60.651 203.106 60.677 202.051 C 60.696 201.241 60.922 200.436 61.321 199.012 C 61.364 198.86 61.409 198.7 61.456 198.532 C 62.351 195.32 60.171 187.278 58.865 183.765 C 57.559 180.92 55.865 174.765 57.538 168.918 C 58.865 162.765 58.471 156.704 57.538 153.859 C 55.584 149.4 51.771 139.421 51.409 133.623 C 51.047 139.421 47.233 149.4 45.28 153.859 C 44.347 156.704 43.953 162.765 45.28 168.918 C 46.953 174.765 45.259 180.92 43.953 183.765 C 42.647 187.278 40.466 195.32 41.362 198.532 C 41.409 198.7 41.453 198.86 41.496 199.012 C 41.895 200.436 42.121 201.241 42.141 202.051 C 42.166 203.106 41.841 204.169 41.092 206.616 L 41.091 206.62 C 41.001 206.915 40.905 207.23 40.802 207.567 C 40.802 212.385 36.324 217.271 34.085 219.111 C 31.847 221.521 27.369 216.602 26.249 215.096 C 25.987 214.743 25.717 214.445 25.473 214.176 C 24.678 213.299 24.166 212.735 25.13 211.582 C 27.034 209.305 28.006 207.254 28.875 205.419 C 29.232 204.664 29.572 203.947 29.953 203.265 C 30.326 200.755 30.4 193.929 27.714 186.701 C 25.027 179.473 22.953 171.765 22.453 167.765 C 22.084 164.814 22.531 161.319 22.992 157.719 C 23.156 156.439 23.321 155.146 23.453 153.859 C 23.887 149.598 23.657 148.906 22.855 146.495 C 22.734 146.13 22.6 145.726 22.453 145.265 C 18.882 129.793 20.822 121.428 22.149 115.707 C 22.494 114.217 22.798 112.906 22.953 111.697 C 23.512 109.187 23.9 103.288 23.453 97.265 C 23.005 91.241 23.706 83.115 24.453 78.765 C 24.962 76.482 25.214 75.552 25.339 74.605 C 25.488 73.469 25.453 72.309 25.453 68.765 C 23.953 76.059 21.83 78.44 21.83 78.44 C 21.83 78.44 20.404 82.327 19.953 85.765 C 20.4 90.985 15.393 100.821 12.968 105.171 C 12.408 106.677 11.96 110.09 14.647 111.697 C 18.005 113.704 17.445 116.214 15.207 119.226 C 12.968 122.237 7.371 121.735 4.012 120.732 C 1.326 119.928 2.52 114.374 3.453 111.697 C 3.453 111.551 3.641 111.363 3.908 111.097 C 4.562 110.444 5.691 109.318 5.691 107.179 C 5.592 106.649 5.494 106.137 5.399 105.64 C 3.901 97.772 3.131 93.73 5.953 85.265 C 6.699 84.093 7.953 79.071 7.953 76.059 C 5.365 67.269 9.469 59.059 12.453 53.265 C 13.572 48.245 19.533 41.927 26.809 39.418 C 30.839 37.41 37.817 35.904 40.802 35.402 C 42.481 35.235 45.28 33.997 43.041 30.383 C 40.869 28.435 40.629 26.016 40.786 25.872 C 40.405 26.028 39.564 25.837 39.123 23.857 C 38.563 21.348 38.563 18.838 40.242 19.842 C 40.242 17.031 39.123 15.325 39.123 15.325 C 39.123 15.325 35.765 3.278 51.134 3.78 C 51.226 3.78 51.318 3.78 51.409 3.781 Z" fill="#51B1C0" stroke="#51B1C0"/>
</svg>