<?xml version="1.0" encoding="utf-8"?>
<svg width="691" height="255" viewBox="0 0 83 226" fill="none" xmlns="http://www.w3.org/2000/svg">
  <path d="M 21.113 39.97 C 24.457 37.962 30.247 36.456 32.724 35.955 C 34.118 35.787 36.44 34.549 34.582 30.935 C 32.78 28.988 32.58 26.569 32.711 26.424 C 32.395 26.58 31.697 26.39 31.331 24.41 C 30.917 22.174 30.872 19.939 31.852 20.187 C 31.723 19.528 31.554 18.232 31.331 15.877 C 30.429 6.34 34.941 4.332 41.826 4.332 C 54.58 3.831 51.793 15.877 51.793 15.877 C 51.793 15.877 50.864 17.584 50.864 20.394 C 52.258 19.391 52.258 21.9 51.793 24.41 C 51.427 26.39 50.729 26.58 50.413 26.424 C 50.544 26.569 50.344 28.988 48.542 30.935 C 46.684 34.549 49.006 35.787 50.4 35.955 C 52.877 36.456 58.667 37.962 62.011 39.97 C 68.048 42.48 71.764 48.503 72.693 53.522 C 73.622 58.542 75.48 71.592 75.48 79.121 C 75.48 82.133 76.254 86.483 76.873 87.654 C 77.183 88.658 77.802 93.878 77.802 106.727 C 77.802 108.866 78.739 109.992 79.282 110.645 C 79.503 110.912 79.66 111.099 79.66 111.245 C 80.434 113.922 81.424 119.477 79.195 120.28 C 76.408 121.284 71.764 121.785 69.906 118.774 C 68.048 115.762 67.584 113.253 70.371 111.245 C 72.6 109.639 72.228 106.225 71.764 104.72 C 69.751 100.37 65.819 90.365 66.191 85.144 C 65.817 81.707 65.216 79.736 64.633 77.82 C 63.768 74.979 62.94 72.26 62.94 65.067 C 61.082 69.082 60.153 71.592 61.082 76.612 C 61.701 80.962 62.847 91.168 62.475 97.191 C 62.104 103.214 62.94 109.739 63.404 112.249 C 64.023 118.105 64.705 133.129 62.475 146.38 C 61.546 149.894 61.082 151.902 61.082 153.408 C 61.237 154.913 61.361 158.427 60.617 160.435 C 59.874 162.442 59.998 166.291 60.153 167.964 C 60.772 170.473 61.453 177.3 59.224 184.528 C 56.995 191.756 57.057 198.582 57.366 201.092 C 58.45 203.434 61.175 208.922 63.404 212.134 C 64.204 213.287 63.779 213.851 63.119 214.728 C 62.917 214.997 62.693 215.295 62.475 215.648 C 61.546 217.154 57.831 222.073 55.973 219.663 C 54.115 217.823 50.4 212.937 50.4 208.119 C 49.607 204.978 49.265 203.786 49.289 202.603 C 49.307 201.706 49.535 200.815 49.935 199.084 C 50.678 195.872 48.697 188.041 47.613 184.528 C 46.529 181.683 44.826 174.69 46.684 169.47 C 48.542 164.249 47.458 157.256 46.684 154.411 C 44.981 149.727 41.549 132.438 41.549 126.817 C 41.549 132.438 38.143 149.727 36.44 154.411 C 35.666 157.256 34.582 164.249 36.44 169.47 C 38.298 174.69 36.595 181.683 35.511 184.528 C 34.427 188.041 32.446 195.872 33.189 199.084 C 33.589 200.815 33.817 201.706 33.835 202.603 C 33.859 203.786 33.517 204.978 32.724 208.119 C 32.724 212.937 29.009 217.823 27.151 219.663 C 25.293 222.073 21.578 217.154 20.649 215.648 C 20.431 215.295 20.207 214.997 20.005 214.728 C 19.345 213.851 18.92 213.287 19.72 212.134 C 21.949 208.922 24.674 203.434 25.758 201.092 C 26.067 198.582 26.129 191.756 23.9 184.528 C 21.671 177.3 22.352 170.473 22.971 167.964 C 23.126 166.291 23.25 162.442 22.507 160.435 C 21.763 158.427 21.887 154.913 22.042 153.408 C 22.042 151.902 21.578 149.894 20.649 146.38 C 18.419 133.129 19.101 118.105 19.72 112.249 C 20.184 109.739 21.02 103.214 20.649 97.191 C 20.277 91.168 21.423 80.962 22.042 76.612 C 22.971 71.592 22.042 69.082 20.184 65.067 C 20.184 72.26 19.356 74.979 18.491 77.82 C 17.908 79.736 17.307 81.707 16.933 85.144 C 17.305 90.365 13.373 100.37 11.36 104.72 C 10.896 106.225 10.524 109.639 12.753 111.245 C 15.54 113.253 15.076 115.762 13.218 118.774 C 11.36 121.785 6.716 121.284 3.929 120.28 C 1.7 119.477 2.69 113.922 3.464 111.245 C 3.464 111.099 3.621 110.912 3.842 110.645 C 4.385 109.992 5.322 108.866 5.322 106.727 C 5.322 93.878 5.941 88.658 6.251 87.654 C 6.87 86.483 7.644 82.133 7.644 79.121 C 7.644 71.592 9.502 58.542 10.431 53.522 C 11.36 48.503 15.076 42.48 21.113 39.97 Z" fill="#51B1C0" stroke="#51B1C0"/>
</svg>